/* XPM */
static char *_05cf38b3775412bf2e294ba031f92144zqH6rSAbWJPPEsT[] = {
/* columns rows colors chars-per-pixel */
"25 25 39 1 ",
"  c #074D19",
". c #09591E",
"X c #0C6624",
"o c #B71319",
"O c #D1171E",
"+ c #ED1C24",
"@ c #996D2B",
"# c #AF7D32",
"$ c #B34F43",
"% c #A1704A",
"& c #9C5264",
"* c #B25E72",
"= c #B0756F",
"- c #CC5B4D",
"; c #0FA378",
": c #5F8E71",
"> c #19CA4B",
", c #1EE656",
"< c #C6BB00",
"1 c #E1D500",
"2 c #FFF200",
"3 c #A79F5F",
"4 c #A9816B",
"5 c #83B064",
"6 c #BEB56C",
"7 c #C8857F",
"8 c #C1937B",
"9 c #2F369E",
"0 c #363EB3",
"q c #026F96",
"w c #037FAB",
"e c #007CB4",
"r c #3F48CC",
"t c #D56188",
"y c #F26F9B",
"u c #13B989",
"i c #008ECC",
"p c #00A2E8",
"a c #DBA88C",
/* pixels */
"oOOOOO@>>>>>>;iiiie11111<",
"O+++++#,,,,,,uppppi222221",
"O+++++#,,,,,,uppppi222221",
"O+++++#,,,,,,uppppi222221",
"O+++++#,,,,,,uppppi222221",
"O+++++#,,,,,,uppppi222221",
"488888=tttttt&.... 000009",
"8aaaaa7yyyyyy*XXXX.rrrrr0",
"8aaaaa7yyyyyy*XXXX.rrrrr0",
"8aaaaa7yyyyyy*XXXX.rrrrr0",
"8aaaaa7yyyyyy*XXXX.rrrrr0",
"8aaaaa7yyyyyy*XXXX.rrrrr0",
"8aaaaa7yyyyyy*XXXX.rrrrr0",
"8aaaaa7yyyyyy*XXXX.rrrrr0",
"8aaaaa7yyyyyy*XXXX.rrrrr0",
"8aaaaa7yyyyyy*XXXX.rrrrr0",
"8aaaaa7yyyyyy*XXXX.rrrrr0",
"$-----%555555:wwwwq666663",
"O+++++#,,,,,,uppppi222221",
"O+++++#,,,,,,uppppi222221",
"O+++++#,,,,,,uppppi222221",
"O+++++#,,,,,,uppppi222221",
"O+++++#,,,,,,uppppi222221",
"O+++++#,,,,,,uppppi222221",
"oOOOOO@>>>>>>;iiiie11111<"
};
