/* XPM */
static char *_a82a950f9964f9cea5f04f693520c0a49riwTpgNOjixMnO[] = {
/* columns rows colors chars-per-pixel */
"10 10 2 1 ",
"  c #3F48CC",
". c #DBA88C",
/* pixels */
" ........ ",
". .....   ",
".. ...  ..",
"... .. ...",
"....  ....",
"....  ....",
"...    ...",
"..  ..  ..",
".  ....   ",
"  ....... "
};
