/* XPM */
static char *_b91a073cda84e2ac2619b4dae3c5ba9D7Z8Sju8kpEK5D4n[] = {
/* columns rows colors chars-per-pixel */
"100 100 9 1 ",
"  c black",
". c #0C6624",
"X c #ED1C24",
"o c #1EE656",
"O c #FFF200",
"+ c #3F48CC",
"@ c #F26F9B",
"# c #00A2E8",
"$ c #DBA88C",
/* pixels */
"                                                                                                    ",
" XXXXXXXXXXXXXXXXXXXXXXXXX ooooooooooooooooooooooooooo #################### OOOOOOOOOOOOOOOOOOOOOOO ",
" XXXXXXXXXXXXXXXXXXXXXXXXX ooooooooooooooooooooooooooo #################### OOOOOOOOOOOOOOOOOOOOOOO ",
" XXXXXXXXXXXXXXXXXXXXXXXXX ooooooooooooooooooooooooooo #################### OOOOOOOOOOOOOOOOOOOOOOO ",
" XXXXXXXXXXXXXXXXXXXXXXXXX ooooooooooooooooooooooooooo #################### OOOOOOOOOOOOOOOOOOOOOOO ",
" XXXXXXXXXXXXXXXXXXXXXXXXX ooooooooooooooooooooooooooo #################### OOOOOOOOOOOOOOOOOOOOOOO ",
" XXXXXXXXXXXXXXXXXXXXXXXXX ooooooooooooooooooooooooooo #################### OOOOOOOOOOOOOOOOOOOOOOO ",
" XXXXXXXXXXXXXXXXXXXXXXXXX ooooooooooooooooooooooooooo #################### OOOOOOOOOOOOOOOOOOOOOOO ",
" XXXXXXXXXXXXXXXXXXXXXXXXX ooooooooooooooooooooooooooo #################### OOOOOOOOOOOOOOOOOOOOOOO ",
" XXXXXXXXXXXXXXXXXXXXXXXXX ooooooooooooooooooooooooooo #################### OOOOOOOOOOOOOOOOOOOOOOO ",
" XXXXXXXXXXXXXXXXXXXXXXXXX ooooooooooooooooooooooooooo #################### OOOOOOOOOOOOOOOOOOOOOOO ",
" XXXXXXXXXXXXXXXXXXXXXXXXX ooooooooooooooooooooooooooo #################### OOOOOOOOOOOOOOOOOOOOOOO ",
" XXXXXXXXXXXXXXXXXXXXXXXXX ooooooooooooooooooooooooooo #################### OOOOOOOOOOOOOOOOOOOOOOO ",
" XXXXXXXXXXXXXXXXXXXXXXXXX ooooooooooooooooooooooooooo #################### OOOOOOOOOOOOOOOOOOOOOOO ",
" XXXXXXXXXXXXXXXXXXXXXXXXX ooooooooooooooooooooooooooo #################### OOOOOOOOOOOOOOOOOOOOOOO ",
" XXXXXXXXXXXXXXXXXXXXXXXXX ooooooooooooooooooooooooooo #################### OOOOOOOOOOOOOOOOOOOOOOO ",
" XXXXXXXXXXXXXXXXXXXXXXXXX ooooooooooooooooooooooooooo #################### OOOOOOOOOOOOOOOOOOOOOOO ",
" XXXXXXXXXXXXXXXXXXXXXXXXX ooooooooooooooooooooooooooo #################### OOOOOOOOOOOOOOOOOOOOOOO ",
" XXXXXXXXXXXXXXXXXXXXXXXXX ooooooooooooooooooooooooooo #################### OOOOOOOOOOOOOOOOOOOOOOO ",
" XXXXXXXXXXXXXXXXXXXXXXXXX ooooooooooooooooooooooooooo #################### OOOOOOOOOOOOOOOOOOOOOOO ",
" XXXXXXXXXXXXXXXXXXXXXXXXX ooooooooooooooooooooooooooo #################### OOOOOOOOOOOOOOOOOOOOOOO ",
" XXXXXXXXXXXXXXXXXXXXXXXXX ooooooooooooooooooooooooooo #################### OOOOOOOOOOOOOOOOOOOOOOO ",
" XXXXXXXXXXXXXXXXXXXXXXXXX ooooooooooooooooooooooooooo #################### OOOOOOOOOOOOOOOOOOOOOOO ",
" XXXXXXXXXXXXXXXXXXXXXXXXX ooooooooooooooooooooooooooo #################### OOOOOOOOOOOOOOOOOOOOOOO ",
"                                                                                                    ",
" $$$$$$$$$$$$$$$$$$$$$$$$$ @@@@@@@@@@@@@@@@@@@@@@@@@@@ .................... +++++++++++++++++++++++ ",
" $$$$$$$$$$$$$$$$$$$$$$$$$ @@@@@@@@@@@@@@@@@@@@@@@@@@@ .................... +++++++++++++++++++++++ ",
" $$$$$$$$$$$$$$$$$$$$$$$$$ @@@@@@@@@@@@@@@@@@@@@@@@@@@ .................... +++++++++++++++++++++++ ",
" $$$$$$$$$$$$$$$$$$$$$$$$$ @@@@@@@@@@@@@@@@@@@@@@@@@@@ .................... +++++++++++++++++++++++ ",
" $$$$$$$$$$$$$$$$$$$$$$$$$ @@@@@@@@@@@@@@@@@@@@@@@@@@@ .................... +++++++++++++++++++++++ ",
" $$$$$$$$$$$$$$$$$$$$$$$$$ @@@@@@@@@@@@@@@@@@@@@@@@@@@ .................... +++++++++++++++++++++++ ",
" $$$$$$$$$$$$$$$$$$$$$$$$$ @@@@@@@@@@@@@@@@@@@@@@@@@@@ .................... +++++++++++++++++++++++ ",
" $$$$$$$$$$$$$$$$$$$$$$$$$ @@@@@@@@@@@@@@@@@@@@@@@@@@@ .................... +++++++++++++++++++++++ ",
" $$$$$$$$$$$$$$$$$$$$$$$$$ @@@@@@@@@@@@@@@@@@@@@@@@@@@ .................... +++++++++++++++++++++++ ",
" $$$$$$$$$$$$$$$$$$$$$$$$$ @@@@@@@@@@@@@@@@@@@@@@@@@@@ .................... +++++++++++++++++++++++ ",
" $$$$$$$$$$$$$$$$$$$$$$$$$ @@@@@@@@@@@@@@@@@@@@@@@@@@@ .................... +++++++++++++++++++++++ ",
" $$$$$$$$$$$$$$$$$$$$$$$$$ @@@@@@@@@@@@@@@@@@@@@@@@@@@ .................... +++++++++++++++++++++++ ",
" $$$$$$$$$$$$$$$$$$$$$$$$$ @@@@@@@@@@@@@@@@@@@@@@@@@@@ .................... +++++++++++++++++++++++ ",
" $$$$$$$$$$$$$$$$$$$$$$$$$ @@@@@@@@@@@@@@@@@@@@@@@@@@@ .................... +++++++++++++++++++++++ ",
" $$$$$$$$$$$$$$$$$$$$$$$$$ @@@@@@@@@@@@@@@@@@@@@@@@@@@ .................... +++++++++++++++++++++++ ",
" $$$$$$$$$$$$$$$$$$$$$$$$$ @@@@@@@@@@@@@@@@@@@@@@@@@@@ .................... +++++++++++++++++++++++ ",
" $$$$$$$$$$$$$$$$$$$$$$$$$ @@@@@@@@@@@@@@@@@@@@@@@@@@@ .................... +++++++++++++++++++++++ ",
" $$$$$$$$$$$$$$$$$$$$$$$$$ @@@@@@@@@@@@@@@@@@@@@@@@@@@ .................... +++++++++++++++++++++++ ",
" $$$$$$$$$$$$$$$$$$$$$$$$$ @@@@@@@@@@@@@@@@@@@@@@@@@@@ .................... +++++++++++++++++++++++ ",
" $$$$$$$$$$$$$$$$$$$$$$$$$ @@@@@@@@@@@@@@@@@@@@@@@@@@@ .................... +++++++++++++++++++++++ ",
" $$$$$$$$$$$$$$$$$$$$$$$$$ @@@@@@@@@@@@@@@@@@@@@@@@@@@ .................... +++++++++++++++++++++++ ",
" $$$$$$$$$$$$$$$$$$$$$$$$$ @@@@@@@@@@@@@@@@@@@@@@@@@@@ .................... +++++++++++++++++++++++ ",
" $$$$$$$$$$$$$$$$$$$$$$$$$ @@@@@@@@@@@@@@@@@@@@@@@@@@@ .................... +++++++++++++++++++++++ ",
" $$$$$$$$$$$$$$$$$$$$$$$$$ @@@@@@@@@@@@@@@@@@@@@@@@@@@ .................... +++++++++++++++++++++++ ",
" $$$$$$$$$$$$$$$$$$$$$$$$$ @@@@@@@@@@@@@@@@@@@@@@@@@@@ .................... +++++++++++++++++++++++ ",
" $$$$$$$$$$$$$$$$$$$$$$$$$ @@@@@@@@@@@@@@@@@@@@@@@@@@@ .................... +++++++++++++++++++++++ ",
" $$$$$$$$$$$$$$$$$$$$$$$$$ @@@@@@@@@@@@@@@@@@@@@@@@@@@ .................... +++++++++++++++++++++++ ",
" $$$$$$$$$$$$$$$$$$$$$$$$$ @@@@@@@@@@@@@@@@@@@@@@@@@@@ .................... +++++++++++++++++++++++ ",
" $$$$$$$$$$$$$$$$$$$$$$$$$ @@@@@@@@@@@@@@@@@@@@@@@@@@@ .................... +++++++++++++++++++++++ ",
" $$$$$$$$$$$$$$$$$$$$$$$$$ @@@@@@@@@@@@@@@@@@@@@@@@@@@ .................... +++++++++++++++++++++++ ",
" $$$$$$$$$$$$$$$$$$$$$$$$$ @@@@@@@@@@@@@@@@@@@@@@@@@@@ .................... +++++++++++++++++++++++ ",
" $$$$$$$$$$$$$$$$$$$$$$$$$ @@@@@@@@@@@@@@@@@@@@@@@@@@@ .................... +++++++++++++++++++++++ ",
" $$$$$$$$$$$$$$$$$$$$$$$$$ @@@@@@@@@@@@@@@@@@@@@@@@@@@ .................... +++++++++++++++++++++++ ",
" $$$$$$$$$$$$$$$$$$$$$$$$$ @@@@@@@@@@@@@@@@@@@@@@@@@@@ .................... +++++++++++++++++++++++ ",
" $$$$$$$$$$$$$$$$$$$$$$$$$ @@@@@@@@@@@@@@@@@@@@@@@@@@@ .................... +++++++++++++++++++++++ ",
" $$$$$$$$$$$$$$$$$$$$$$$$$ @@@@@@@@@@@@@@@@@@@@@@@@@@@ .................... +++++++++++++++++++++++ ",
" $$$$$$$$$$$$$$$$$$$$$$$$$ @@@@@@@@@@@@@@@@@@@@@@@@@@@ .................... +++++++++++++++++++++++ ",
" $$$$$$$$$$$$$$$$$$$$$$$$$ @@@@@@@@@@@@@@@@@@@@@@@@@@@ .................... +++++++++++++++++++++++ ",
" $$$$$$$$$$$$$$$$$$$$$$$$$ @@@@@@@@@@@@@@@@@@@@@@@@@@@ .................... +++++++++++++++++++++++ ",
" $$$$$$$$$$$$$$$$$$$$$$$$$ @@@@@@@@@@@@@@@@@@@@@@@@@@@ .................... +++++++++++++++++++++++ ",
" $$$$$$$$$$$$$$$$$$$$$$$$$ @@@@@@@@@@@@@@@@@@@@@@@@@@@ .................... +++++++++++++++++++++++ ",
" $$$$$$$$$$$$$$$$$$$$$$$$$ @@@@@@@@@@@@@@@@@@@@@@@@@@@ .................... +++++++++++++++++++++++ ",
" $$$$$$$$$$$$$$$$$$$$$$$$$ @@@@@@@@@@@@@@@@@@@@@@@@@@@ .................... +++++++++++++++++++++++ ",
" $$$$$$$$$$$$$$$$$$$$$$$$$ @@@@@@@@@@@@@@@@@@@@@@@@@@@ .................... +++++++++++++++++++++++ ",
"                                                                                                    ",
" XXXXXXXXXXXXXXXXXXXXXXXXX ooooooooooooooooooooooooooo #################### OOOOOOOOOOOOOOOOOOOOOOO ",
" XXXXXXXXXXXXXXXXXXXXXXXXX ooooooooooooooooooooooooooo #################### OOOOOOOOOOOOOOOOOOOOOOO ",
" XXXXXXXXXXXXXXXXXXXXXXXXX ooooooooooooooooooooooooooo #################### OOOOOOOOOOOOOOOOOOOOOOO ",
" XXXXXXXXXXXXXXXXXXXXXXXXX ooooooooooooooooooooooooooo #################### OOOOOOOOOOOOOOOOOOOOOOO ",
" XXXXXXXXXXXXXXXXXXXXXXXXX ooooooooooooooooooooooooooo #################### OOOOOOOOOOOOOOOOOOOOOOO ",
" XXXXXXXXXXXXXXXXXXXXXXXXX ooooooooooooooooooooooooooo #################### OOOOOOOOOOOOOOOOOOOOOOO ",
" XXXXXXXXXXXXXXXXXXXXXXXXX ooooooooooooooooooooooooooo #################### OOOOOOOOOOOOOOOOOOOOOOO ",
" XXXXXXXXXXXXXXXXXXXXXXXXX ooooooooooooooooooooooooooo #################### OOOOOOOOOOOOOOOOOOOOOOO ",
" XXXXXXXXXXXXXXXXXXXXXXXXX ooooooooooooooooooooooooooo #################### OOOOOOOOOOOOOOOOOOOOOOO ",
" XXXXXXXXXXXXXXXXXXXXXXXXX ooooooooooooooooooooooooooo #################### OOOOOOOOOOOOOOOOOOOOOOO ",
" XXXXXXXXXXXXXXXXXXXXXXXXX ooooooooooooooooooooooooooo #################### OOOOOOOOOOOOOOOOOOOOOOO ",
" XXXXXXXXXXXXXXXXXXXXXXXXX ooooooooooooooooooooooooooo #################### OOOOOOOOOOOOOOOOOOOOOOO ",
" XXXXXXXXXXXXXXXXXXXXXXXXX ooooooooooooooooooooooooooo #################### OOOOOOOOOOOOOOOOOOOOOOO ",
" XXXXXXXXXXXXXXXXXXXXXXXXX ooooooooooooooooooooooooooo #################### OOOOOOOOOOOOOOOOOOOOOOO ",
" XXXXXXXXXXXXXXXXXXXXXXXXX ooooooooooooooooooooooooooo #################### OOOOOOOOOOOOOOOOOOOOOOO ",
" XXXXXXXXXXXXXXXXXXXXXXXXX ooooooooooooooooooooooooooo #################### OOOOOOOOOOOOOOOOOOOOOOO ",
" XXXXXXXXXXXXXXXXXXXXXXXXX ooooooooooooooooooooooooooo #################### OOOOOOOOOOOOOOOOOOOOOOO ",
" XXXXXXXXXXXXXXXXXXXXXXXXX ooooooooooooooooooooooooooo #################### OOOOOOOOOOOOOOOOOOOOOOO ",
" XXXXXXXXXXXXXXXXXXXXXXXXX ooooooooooooooooooooooooooo #################### OOOOOOOOOOOOOOOOOOOOOOO ",
" XXXXXXXXXXXXXXXXXXXXXXXXX ooooooooooooooooooooooooooo #################### OOOOOOOOOOOOOOOOOOOOOOO ",
" XXXXXXXXXXXXXXXXXXXXXXXXX ooooooooooooooooooooooooooo #################### OOOOOOOOOOOOOOOOOOOOOOO ",
" XXXXXXXXXXXXXXXXXXXXXXXXX ooooooooooooooooooooooooooo #################### OOOOOOOOOOOOOOOOOOOOOOO ",
" XXXXXXXXXXXXXXXXXXXXXXXXX ooooooooooooooooooooooooooo #################### OOOOOOOOOOOOOOOOOOOOOOO ",
" XXXXXXXXXXXXXXXXXXXXXXXXX ooooooooooooooooooooooooooo #################### OOOOOOOOOOOOOOOOOOOOOOO ",
" XXXXXXXXXXXXXXXXXXXXXXXXX ooooooooooooooooooooooooooo #################### OOOOOOOOOOOOOOOOOOOOOOO ",
" XXXXXXXXXXXXXXXXXXXXXXXXX ooooooooooooooooooooooooooo #################### OOOOOOOOOOOOOOOOOOOOOOO ",
" XXXXXXXXXXXXXXXXXXXXXXXXX ooooooooooooooooooooooooooo #################### OOOOOOOOOOOOOOOOOOOOOOO ",
" XXXXXXXXXXXXXXXXXXXXXXXXX ooooooooooooooooooooooooooo #################### OOOOOOOOOOOOOOOOOOOOOOO ",
" XXXXXXXXXXXXXXXXXXXXXXXXX ooooooooooooooooooooooooooo #################### OOOOOOOOOOOOOOOOOOOOOOO ",
"                                                                                                    "
};
