/* XPM */
static char *_4f7be650c0447bb914461b95e3222276DEKLjTUdUJakMEH[] = {
/* columns rows colors chars-per-pixel */
"10 10 52 1 ",
"  c None",
". c #0C6624",
"X c #6B664A",
"o c #54787F",
"O c #CE171E",
"+ c #D71820",
"@ c #DA1920",
"# c #E31A22",
"$ c #ED1C24",
"% c #1AD04D",
"& c #1CDD52",
"* c #1EE656",
"= c #958B35",
"- c #9E9339",
"; c #A59A3C",
": c #DED200",
"> c #E7DB00",
", c #F5E800",
"< c #FFF200",
"1 c #BB826F",
"2 c #C9806B",
"3 c #D9816C",
"4 c #C38E71",
"5 c #D28670",
"6 c #E28671",
"7 c #D1CD58",
"8 c #DED95E",
"9 c #E7E362",
"0 c #077381",
"q c #3840B9",
"w c #394CB9",
"e c #3F48CC",
"r c #F26F9B",
"t c #07829C",
"y c #548896",
"u c #069CC0",
"i c #0092D2",
"p c #009BDF",
"a c #06A6CC",
"s c #07ADD4",
"d c #00A2E8",
"f c #848093",
"g c #84879A",
"h c #9E9893",
"j c #9EA09E",
"k c #928DA2",
"l c #AFA8A2",
"z c #D58588",
"x c #C19581",
"c c #C2AC85",
"v c #D2A186",
"b c #DBA88C",
/* pixels */
"@#-&&ap8,:",
"#$;**sd9<>",
"251xxo0gkf",
"vbzrrX.weq",
"vbzrrX.weq",
"vbzrrX.weq",
"364ccytjlh",
"#$;**sd9<>",
"#$;**sd9<>",
"O+=%%ui7> "
};
